<?xml version="1.0" standalone="no"?>
<!DOCTYPE svg PUBLIC "-//W3C//DTD SVG 20010904//EN"
 "http://www.w3.org/TR/2001/REC-SVG-20010904/DTD/svg10.dtd">
<svg version="1.0" xmlns="http://www.w3.org/2000/svg"
 width="640.000000pt" height="533.000000pt" viewBox="0 0 640.000000 533.000000"
 preserveAspectRatio="xMidYMid meet">

<g transform="translate(0.000000,533.000000) scale(0.100000,-0.100000)"
fill="#000000" stroke="none">
<path d="M2531 3626 c-50 -72 -62 -108 -41 -121 6 -4 18 -1 26 6 30 25 95 129
88 141 -4 7 -3 8 4 4 13 -8 15 4 6 28 -12 30 -32 16 -83 -58z m74 54 c3 -6 -1
-7 -9 -4 -18 7 -21 14 -7 14 6 0 13 -4 16 -10z m-85 -156 c0 -8 -19 -13 -24
-6 -3 5 1 9 9 9 8 0 15 -2 15 -3z"/>
<path d="M2665 3616 c-9 -14 -14 -30 -10 -36 4 -6 1 -9 -5 -8 -14 3 -38 -54
-39 -93 -1 -39 21 -52 79 -47 44 5 50 3 45 -12 -11 -36 5 -50 57 -50 35 0 47
3 42 12 -4 7 -3 8 5 4 15 -9 53 3 46 15 -3 5 2 6 11 2 11 -4 15 -2 11 4 -4 6
1 10 11 9 11 -1 18 7 20 23 5 31 -6 71 -19 71 -6 0 -7 -5 -3 -12 4 -6 3 -8 -4
-4 -6 3 -26 -3 -44 -14 -55 -33 -67 -28 -70 32 -2 33 -8 53 -17 56 -9 3 -11 0
-6 -8 5 -9 4 -11 -4 -6 -6 4 -23 0 -37 -9 -32 -21 -43 -12 -19 15 15 16 17 26
9 48 -13 36 -39 39 -59 8z"/>
<path d="M3015 3470 c3 -5 0 -7 -8 -4 -17 6 -54 -49 -63 -95 -9 -45 22 -42 41
3 8 19 20 38 26 41 5 4 8 14 5 22 -3 8 -1 11 4 8 6 -3 10 3 10 14 0 12 -5 21
-11 21 -5 0 -7 -4 -4 -10z"/>
<path d="M3071 3416 c-56 -60 -61 -80 -31 -119 11 -14 20 -36 20 -50 0 -13 7
-30 15 -37 20 -17 40 0 71 63 20 39 23 54 16 76 -5 15 -6 34 -2 42 9 16 -14
79 -28 79 -5 0 -32 -24 -61 -54z m34 -196 c-3 -5 -12 -10 -18 -10 -7 0 -6 4 3
10 19 12 23 12 15 0z"/>
<path d="M2298 3353 c-34 -37 -51 -71 -44 -89 3 -8 2 -13 -3 -10 -10 7 -24
-40 -16 -53 2 -5 25 -4 51 1 42 9 47 8 61 -12 9 -12 21 -19 30 -16 8 3 12 2 9
-3 -3 -5 1 -12 9 -15 18 -6 31 17 19 35 -4 8 -3 9 4 5 7 -4 12 -1 12 9 0 8 -7
18 -15 22 -9 3 -22 18 -31 34 -8 16 -19 29 -25 29 -6 0 -7 -4 -4 -10 3 -5 0
-7 -8 -4 -8 3 -18 1 -22 -5 -9 -16 -35 -13 -35 4 0 8 11 31 25 51 40 59 29 76
-17 27z"/>
<path d="M3370 3331 c-16 -30 -12 -43 20 -76 l30 -31 -45 -32 c-25 -17 -45
-38 -45 -45 0 -17 -194 -27 -507 -27 l-203 0 0 25 c0 14 -4 25 -9 25 -5 0 -12
14 -16 31 -14 63 -62 40 -86 -42 -11 -37 -14 -39 -51 -39 -50 0 -92 -39 -102
-95 -9 -47 -64 -236 -71 -243 -10 -11 -4 20 19 93 l24 76 -24 16 c-13 8 -33
13 -43 10 -15 -3 -20 2 -25 25 -3 16 -10 27 -16 23 -6 -4 -7 1 -3 11 5 14 3
16 -11 11 -10 -4 -15 -3 -11 3 9 14 -34 32 -61 26 -30 -8 -101 -56 -108 -73
-3 -7 -3 -20 0 -28 5 -12 12 -10 42 10 45 30 62 31 96 4 22 -18 26 -28 26 -75
0 -48 2 -54 20 -54 11 0 23 -7 26 -15 4 -8 11 -12 17 -8 6 4 7 1 2 -6 -4 -8 1
-25 14 -41 l20 -28 -24 -82 c-25 -85 -24 -104 6 -120 10 -6 127 -10 273 -10
167 0 257 -4 261 -10 4 -7 11 -7 18 -2 7 5 179 12 382 16 204 3 400 9 438 12
l67 7 -2 -34 c-3 -28 1 -35 19 -37 17 -3 24 3 29 22 8 33 22 33 30 0 6 -22 11
-25 43 -22 35 3 36 2 47 -42 8 -34 15 -45 30 -45 25 0 29 43 12 104 l-13 45
-65 -2 c-106 -2 -56 6 110 18 453 32 984 84 1038 101 18 6 40 21 48 34 18 27
84 406 84 481 0 76 -6 78 -152 60 -391 -49 -1092 -104 -1403 -111 -127 -2
-214 -1 -195 4 49 11 104 46 121 77 13 26 12 28 -41 75 -30 27 -58 49 -62 49
-4 0 -12 -9 -18 -19z m1660 -146 c11 -13 9 -46 -9 -178 -26 -189 -42 -242 -79
-261 -57 -29 -999 -110 -1394 -119 -109 -3 -136 10 -31 15 42 2 68 8 71 16 2
7 -5 12 -17 12 -11 0 -24 7 -29 17 -9 14 -11 14 -21 -5 -15 -27 -47 -28 -61
-3 -13 25 -13 46 1 94 8 29 15 37 33 37 33 0 47 -21 50 -75 2 -25 6 -48 9 -52
3 -3 21 -3 40 1 34 6 34 7 30 54 -3 26 -11 60 -19 76 -17 36 -17 36 0 36 24 0
56 50 56 86 0 26 -6 38 -27 51 -16 9 -29 18 -31 19 -2 1 1 11 7 22 10 18 6 20
-64 25 -41 4 -78 7 -82 8 -4 1 -36 1 -71 0 -70 -1 -73 -10 -12 -41 31 -16 45
-18 65 -10 15 6 43 10 63 9 44 -1 34 -5 -29 -14 l-46 -6 -13 -62 c-7 -34 -19
-80 -26 -102 -7 -22 -18 -66 -24 -98 -6 -32 -14 -57 -16 -54 -2 2 2 35 10 73
11 52 12 71 3 76 -33 21 -57 -86 -36 -154 12 -37 18 -43 44 -45 48 -2 52 -4
24 -13 -15 -4 -107 -8 -205 -9 -99 -1 -216 -4 -262 -7 -66 -6 -86 -4 -100 8
-35 31 -69 43 -137 48 l-70 5 -5 35 c-5 32 -8 35 -47 38 -24 2 -43 0 -43 -5 0
-5 -7 -18 -15 -29 -13 -17 -13 -16 -3 14 12 31 15 32 65 32 l53 0 0 -40 0 -40
45 0 c25 0 45 2 45 5 0 10 -31 222 -36 243 -4 18 -1 22 13 20 11 -2 22 6 28
20 12 28 18 28 30 0 13 -28 41 -39 31 -12 -4 10 -4 15 0 12 3 -4 15 3 25 15
25 30 24 17 -11 -143 -17 -74 -30 -141 -30 -148 0 -9 11 -12 38 -10 37 3 37 3
45 59 l9 57 61 4 c44 4 69 1 84 -10 13 -8 30 -12 38 -8 9 3 13 2 10 -4 -3 -6
1 -10 11 -10 14 0 15 -7 9 -46 l-6 -45 38 3 c37 3 38 4 48 57 l11 53 41 2 c23
1 40 -1 37 -6 -3 -4 -21 -8 -40 -8 -31 0 -34 -3 -34 -29 0 -29 14 -41 50 -41
22 0 40 28 40 60 0 14 20 41 50 69 42 39 50 53 50 82 0 18 -7 43 -15 53 -18
23 -90 36 -162 29 l-52 -6 -11 -56 c-23 -112 -22 -109 -49 -92 -10 7 -20 2
-33 -15 -11 -13 -24 -24 -31 -24 -6 0 1 12 16 28 15 16 29 44 33 69 6 39 4 45
-25 72 -17 16 -31 34 -31 41 0 8 -8 10 -22 5 -64 -20 -75 -18 -81 12 -3 15 -4
29 -3 30 1 1 114 5 252 8 137 3 296 10 354 15 58 6 121 10 141 10 34 0 35 -1
31 -31 -3 -22 -1 -30 7 -25 6 4 8 12 5 18 -4 6 -2 8 4 4 6 -3 17 3 25 14 12
18 31 21 158 30 262 17 421 31 749 64 390 40 394 40 410 21z m-2442 -52 c-16
-2 -40 -2 -55 0 -16 2 -3 4 27 4 30 0 43 -2 28 -4z m291 -89 c2 -2 -41 -4 -97
-4 -100 0 -102 0 -108 -25 -5 -22 -11 -25 -53 -25 l-46 0 -83 -153 c-45 -85
-82 -157 -82 -160 0 -17 79 -6 104 14 31 24 42 18 77 -37 l21 -34 105 0 c59 0
104 -3 101 -6 -3 -3 -103 -5 -222 -6 -281 -1 -282 1 -231 158 14 42 25 83 25
92 0 8 3 13 6 9 3 -3 0 -30 -7 -61 -10 -44 -10 -58 1 -71 18 -22 22 -20 52 30
15 25 23 45 18 45 -5 0 -12 -5 -15 -10 -12 -19 -24 0 -35 55 -9 45 -9 65 4
108 9 30 24 62 35 71 19 18 22 17 65 -4 47 -22 77 -18 89 14 5 13 26 14 139 9
73 -3 135 -7 137 -9z m-306 -1 c-13 -2 -35 -2 -50 0 -16 2 -5 4 22 4 28 0 40
-2 28 -4z m1014 -29 c-3 -3 -12 -4 -19 -1 -8 3 -5 6 6 6 11 1 17 -2 13 -5z
m-716 -15 c-16 -6 -28 -6 -35 1 -7 7 1 10 25 9 32 0 33 -1 10 -10z m119 1 c0
-5 -2 -10 -4 -10 -3 0 -8 5 -11 10 -3 6 -1 10 4 10 6 0 11 -4 11 -10z m-290
-40 c0 -5 -2 -10 -4 -10 -3 0 -8 5 -11 10 -3 6 -1 10 4 10 6 0 11 -4 11 -10z
m582 -33 c10 -16 0 -49 -20 -64 -9 -7 -30 -13 -48 -13 -28 0 -31 3 -26 25 2
14 8 25 12 25 5 0 6 -9 3 -20 -4 -16 0 -20 21 -20 34 0 33 11 -6 40 -30 22
-30 24 -12 37 21 15 64 9 76 -10z m303 13 c13 -22 -20 -65 -58 -74 -20 -5 -39
-7 -41 -5 -3 2 -2 23 1 47 l6 42 43 0 c23 0 46 -4 49 -10z m-656 -77 c11 -22
10 -23 -19 -23 -34 0 -35 5 -18 63 l12 41 6 -29 c4 -17 12 -40 19 -52z m-309
18 c0 -27 3 -57 6 -66 6 -14 1 -15 -32 -9 -22 3 -40 8 -42 9 -5 4 53 114 61
114 4 1 7 -21 7 -48z m358 18 c2 -15 -4 -32 -14 -40 -16 -13 -16 -12 -5 9 16
30 9 49 -21 55 -16 4 -14 5 7 4 24 -2 31 -7 33 -28z m101 -123 c-9 -8 -10 -7
-5 7 3 10 7 24 7 30 1 7 3 4 6 -7 3 -10 -1 -23 -8 -30z m366 -106 c-3 -5 -24
-10 -46 -10 -24 0 -38 4 -34 10 3 6 24 10 46 10 24 0 38 -4 34 -10z m320 -110
c-3 -5 -16 -10 -28 -10 -18 0 -19 2 -7 10 20 13 43 13 35 0z"/>
<path d="M4771 3087 l-55 -12 -33 -145 c-17 -80 -32 -151 -33 -157 0 -19 105
-16 167 6 77 26 120 60 148 115 29 57 33 130 10 163 -9 13 -34 25 -65 32 -60
13 -68 13 -139 -2z m119 -67 c59 -59 -24 -200 -117 -200 -18 0 -33 1 -33 3 0
16 39 198 44 206 12 19 84 13 106 -9z"/>
<path d="M3825 3070 c3 -5 0 -7 -8 -5 -7 3 -26 -6 -41 -20 -21 -20 -27 -32
-23 -53 4 -20 -2 -35 -23 -59 -51 -57 -53 -164 -6 -212 52 -52 187 -25 250 49
14 17 26 35 26 40 0 10 89 105 94 99 2 -2 9 -47 15 -99 7 -52 13 -95 14 -96 1
-1 23 0 49 3 35 4 49 11 53 24 5 14 16 19 45 19 62 0 139 81 100 105 -6 3 -17
20 -26 37 -9 16 -11 27 -5 24 7 -4 11 1 11 14 0 11 9 38 20 60 11 22 20 42 20
45 0 3 -17 5 -37 5 l-38 -1 -59 -124 c-33 -69 -62 -125 -66 -125 -4 0 -13 54
-20 120 l-12 120 -37 -6 c-45 -9 -51 -18 -39 -61 5 -19 7 -40 5 -46 -3 -7 -8
7 -12 31 -7 39 -9 42 -23 28 -11 -11 -15 -31 -13 -71 1 -30 -2 -55 -7 -55 -5
0 -7 20 -4 46 4 39 1 49 -23 74 -16 17 -43 33 -62 36 -26 5 -33 11 -33 30 0
17 -6 24 -20 24 -11 0 -20 -6 -20 -12 -1 -8 -6 -6 -14 5 -14 18 -42 25 -31 7z
m35 -44 c-26 -7 -57 -20 -71 -30 -22 -14 -26 -14 -26 -1 0 8 2 13 4 11 3 -2
23 4 46 15 23 10 53 18 67 18 17 -1 10 -5 -20 -13z m434 -190 c-21 -36 -40
-63 -42 -61 -3 2 13 33 34 69 21 36 40 64 42 62 2 -2 -13 -34 -34 -70z"/>
<path d="M4540 3065 l-105 -10 -15 -76 c-8 -42 -21 -83 -28 -91 -7 -9 -10 -23
-6 -32 3 -9 3 -24 -2 -33 -4 -10 -8 -35 -9 -56 -1 -35 0 -37 24 -33 14 3 61 7
104 8 82 2 91 7 102 49 8 32 -13 51 -27 25 -7 -12 -23 -16 -63 -16 -30 0 -55
3 -55 7 0 3 8 15 18 26 9 11 11 17 4 13 -10 -6 -13 -3 -10 10 3 16 15 20 67
24 60 5 65 7 72 33 l7 27 -64 0 c-56 0 -64 2 -64 19 0 40 11 51 50 51 69 0
100 11 106 37 4 13 5 25 3 26 -2 1 -51 -2 -109 -8z m-99 -245 c-22 -19 -41
-26 -41 -15 0 5 51 34 60 34 3 0 -6 -9 -19 -19z"/>
<path d="M1675 2811 c0 -29 -4 -36 -20 -36 -12 0 -26 12 -35 30 l-15 31 -60
-15 c-45 -11 -73 -12 -118 -4 -50 8 -75 6 -151 -12 -156 -37 -157 -37 -195
-114 -19 -38 -48 -111 -65 -162 -27 -81 -34 -94 -54 -95 -29 -2 -58 -28 -90
-84 -14 -25 -37 -59 -50 -77 -32 -43 -62 -125 -62 -171 0 -20 13 -65 29 -99
44 -92 118 -330 125 -400 5 -55 2 -67 -24 -117 -55 -102 -30 -185 71 -236 54
-28 100 -25 170 11 86 43 122 38 164 -21 26 -37 40 -47 77 -55 25 -5 52 -15
60 -22 7 -7 50 -13 93 -15 72 -3 80 -1 78 15 0 10 1 16 4 14 7 -8 53 43 53 59
0 8 6 16 13 18 81 21 202 63 240 84 27 14 72 54 104 91 90 105 186 201 216
217 16 9 25 20 21 26 -4 7 -3 8 5 4 14 -9 136 68 145 91 3 8 3 20 -1 25 -3 6
-1 8 4 5 19 -12 26 25 31 164 5 153 -10 235 -55 304 -14 22 -101 115 -193 206
-167 165 -273 248 -385 301 -27 12 -56 30 -62 39 -7 10 -25 21 -40 27 -27 9
-28 8 -28 -27z m-337 -37 c4 -29 -21 -47 -79 -54 -57 -7 -68 10 -21 34 16 8
34 22 42 31 18 22 54 15 58 -11z m982 -490 c36 -86 69 -224 70 -292 1 -106 -6
-115 -229 -334 -113 -112 -238 -229 -277 -260 -66 -54 -163 -108 -192 -108 -8
0 -26 -9 -41 -19 -15 -11 -40 -23 -57 -26 -16 -4 -59 -23 -96 -41 -38 -19 -68
-32 -68 -30 0 10 128 76 147 76 11 0 37 11 57 25 20 14 42 25 49 25 30 0 157
71 207 116 130 115 453 430 465 454 7 14 17 54 20 87 12 106 -46 321 -116 427
l-21 31 25 -26 c13 -15 39 -62 57 -105z m-212 86 c16 -14 27 -39 37 -94 17
-86 11 -112 -31 -145 -25 -19 -29 -20 -44 -6 -21 19 -51 120 -53 180 -1 30 4
49 17 64 23 26 44 26 74 1z m-1174 -47 c9 -22 -20 -117 -40 -134 -14 -11 -18
-10 -30 6 -20 27 -17 75 6 113 21 35 54 43 64 15z m1020 -439 c-7 -38 -55 -69
-136 -90 -35 -8 -77 -19 -95 -24 -32 -8 -76 10 -61 25 10 11 171 75 188 75 8
1 35 12 60 25 25 12 46 22 48 21 1 -2 0 -16 -4 -32z m-720 -106 c9 -12 16 -37
16 -55 0 -27 -5 -35 -27 -44 -36 -13 -108 19 -125 56 -15 33 -4 44 58 54 27 5
52 9 56 10 4 0 14 -9 22 -21z m413 -550 c-3 -8 -6 -5 -6 6 -1 11 2 17 5 13 3
-3 4 -12 1 -19z"/>
<path d="M3996 2518 c-34 -48 -7 -147 48 -178 25 -14 28 -13 42 4 21 30 18 66
-6 66 -24 0 -25 8 -5 34 22 29 18 52 -11 75 -34 27 -49 26 -68 -1z"/>
<path d="M3091 2472 c-40 -42 -59 -88 -43 -104 6 -6 18 2 31 21 29 40 41 39
41 -3 l0 -34 63 1 62 2 -1 -35 c0 -19 -3 -46 -5 -59 -2 -13 1 -26 8 -28 19 -7
44 42 50 100 5 47 3 57 -17 77 -18 18 -30 21 -66 17 -43 -4 -44 -4 -50 29 -11
58 -29 62 -73 16z m196 -144 c-3 -8 -6 -5 -6 6 -1 11 2 17 5 13 3 -3 4 -12 1
-19z"/>
<path d="M4159 2468 c-40 -31 -25 -156 17 -150 16 2 27 -7 43 -33 15 -27 27
-36 43 -33 29 4 56 45 64 96 5 35 4 42 -9 42 -9 0 -24 -14 -32 -30 -18 -35
-27 -33 -45 10 -7 18 -20 30 -31 30 -13 0 -20 11 -26 40 -7 36 -10 39 -24 28z"/>
<path d="M3374 2385 c-23 -35 -31 -82 -24 -132 7 -47 36 -87 57 -78 8 3 11 0
7 -6 -4 -7 6 -9 27 -7 29 3 34 7 37 32 3 25 1 28 -18 23 -12 -3 -19 -3 -16 0
3 3 -5 14 -17 24 l-22 19 33 28 c36 32 40 60 16 97 -21 33 -59 33 -80 0z"/>
<path d="M3550 2295 c-2 -5 -2 -13 -1 -17 0 -5 -5 -7 -11 -5 -15 2 -23 -44
-14 -79 5 -20 13 -24 41 -24 28 0 37 -5 45 -24 20 -54 66 -51 96 5 16 32 12
65 -6 54 -6 -4 -8 -10 -6 -14 3 -4 -4 -8 -15 -8 -13 -1 -25 9 -36 32 -15 32
-18 33 -42 21 -27 -14 -51 -11 -51 5 0 6 5 7 10 4 6 -3 10 0 9 7 -1 19 -17 55
-19 43z"/>
<path d="M3756 2257 c-8 -12 -17 -41 -21 -63 -16 -102 53 -197 170 -233 37
-12 78 -21 92 -21 23 0 24 3 21 47 l-3 47 -58 13 c-65 14 -111 36 -144 66 -26
23 -28 44 -12 81 24 52 -17 108 -45 63z m251 -299 c-3 -8 -6 -5 -6 6 -1 11 2
17 5 13 3 -3 4 -12 1 -19z"/>
<path d="M2837 2209 c-9 -6 -15 -14 -12 -20 3 -5 0 -6 -8 -3 -19 7 -69 -53
-65 -80 2 -14 13 -22 35 -27 39 -8 133 8 150 24 18 18 21 53 4 49 -110 -24
-143 -23 -109 2 10 7 14 17 10 21 -4 5 -1 5 7 0 14 -8 31 10 31 33 0 15 -18
15 -43 1z"/>
<path d="M2982 2108 c-27 -27 0 -98 37 -98 38 0 41 53 5 86 -29 28 -27 27 -42
12z"/>
<path d="M3090 2055 c-1 -5 -2 -13 -1 -17 0 -5 -4 -7 -10 -5 -6 1 -15 -8 -20
-20 -7 -19 -5 -23 12 -23 23 0 32 19 26 52 -2 13 -5 19 -7 13z"/>
<path d="M3161 1976 c-18 -22 -24 -81 -11 -106 13 -25 0 -24 190 -2 35 5 54
12 53 19 -2 7 3 10 11 7 8 -3 17 -1 20 4 3 6 -1 13 -10 16 -12 5 -48 -7 -96
-32 -5 -2 -8 5 -8 15 0 10 -7 28 -15 40 -12 17 -22 21 -44 17 -23 -5 -32 -2
-40 15 -13 24 -33 27 -50 7z m-4 -68 c-3 -8 -6 -5 -6 6 -1 11 2 17 5 13 3 -3
4 -12 1 -19z m140 -20 c-3 -8 -6 -5 -6 6 -1 11 2 17 5 13 3 -3 4 -12 1 -19z
m-112 -26 c-3 -3 -11 0 -18 7 -9 10 -8 11 6 5 10 -3 15 -9 12 -12z"/>
<path d="M4080 1970 c-13 -24 13 -94 32 -88 27 9 33 36 15 72 -19 41 -32 45
-47 16z"/>
<path d="M4203 1932 c-5 -4 -15 -17 -22 -30 -10 -18 -9 -23 3 -28 28 -11 51 1
54 27 3 27 -16 43 -35 31z"/>
<path d="M4306 1858 c-14 -20 -14 -24 1 -41 16 -17 18 -17 30 -1 18 24 17 64
-1 64 -8 0 -22 -10 -30 -22z"/>
<path d="M3435 1860 c3 -5 0 -7 -8 -4 -21 8 -55 -44 -63 -95 l-7 -42 178 2
c175 2 177 2 188 26 5 13 7 26 3 31 -10 9 -219 8 -268 -2 -33 -6 -38 -4 -38
11 0 10 7 27 15 37 17 23 20 46 4 46 -5 0 -7 -4 -4 -10z m32 -126 c-3 -3 -12
-4 -19 -1 -8 3 -5 6 6 6 11 1 17 -2 13 -5z"/>
<path d="M3781 1660 c-10 -29 -9 -30 18 -30 17 0 31 7 35 16 12 30 6 44 -18
44 -18 0 -27 -8 -35 -30z m46 -2 c-3 -8 -6 -5 -6 6 -1 11 2 17 5 13 3 -3 4
-12 1 -19z"/>
<path d="M2939 1550 c-26 -5 -67 -17 -92 -28 -56 -25 -140 -100 -133 -119 3
-8 1 -11 -4 -8 -20 13 -54 -86 -55 -158 0 -67 1 -69 41 -107 23 -21 61 -44 85
-51 l44 -13 -50 -7 c-114 -17 -114 -17 -201 71 -43 44 -82 80 -85 80 -5 0 -29
-45 -29 -55 0 -3 25 -34 55 -70 30 -35 55 -66 55 -69 0 -2 -20 -16 -44 -30
-52 -31 -99 -83 -92 -103 3 -8 2 -12 -3 -9 -10 7 -21 -17 -21 -45 0 -24 36
-39 94 -39 56 0 107 10 101 20 -3 5 5 6 17 2 16 -4 19 -2 13 8 -5 9 -4 11 4 6
16 -10 73 13 64 27 -4 6 -1 7 6 3 7 -5 26 -2 42 4 25 11 36 10 68 -5 22 -9 45
-14 52 -10 7 5 10 4 5 -3 -8 -13 89 -47 105 -36 8 5 9 3 4 -6 -6 -10 -3 -12
13 -8 12 4 20 2 17 -2 -7 -11 62 -33 76 -24 7 4 9 3 5 -4 -8 -13 59 -36 75
-26 7 4 9 3 5 -4 -3 -6 3 -13 14 -17 11 -3 20 -9 20 -13 -1 -4 -34 -33 -75
-65 -57 -44 -75 -65 -75 -83 0 -13 3 -24 8 -24 4 0 39 27 77 61 114 99 115 99
155 83 18 -8 40 -12 47 -9 8 2 11 1 8 -4 -3 -5 3 -12 14 -16 11 -3 38 -31 61
-61 49 -65 111 -107 181 -124 53 -13 85 -1 75 27 -3 8 -1 11 4 8 6 -3 10 -1
10 4 0 6 -8 11 -17 11 -22 0 -148 59 -141 66 3 3 36 -3 73 -12 72 -18 88 -12
83 30 -2 16 -23 26 -98 48 -52 15 -101 25 -108 23 -7 -3 -11 -1 -7 4 3 5 -10
14 -28 20 -23 8 -41 24 -56 51 -12 22 -27 37 -33 34 -13 -8 1 15 58 95 24 36
43 70 40 78 -3 7 -2 12 2 11 13 -3 82 44 76 53 -3 5 3 6 12 2 13 -5 15 -3 9 7
-5 8 -4 11 3 6 14 -8 115 41 107 53 -2 5 3 8 13 7 12 -1 16 5 14 19 -2 15 -1
17 7 6 7 -11 15 -10 42 9 94 66 149 112 143 122 -4 7 -2 8 5 4 12 -8 50 30 51
52 0 19 -9 15 -56 -27 -82 -72 -359 -249 -371 -237 -3 2 5 23 17 46 12 23 19
49 15 58 -3 9 -3 13 1 9 10 -10 106 173 100 190 -3 7 -12 10 -19 7 -20 -7 -70
-102 -61 -116 4 -7 3 -8 -4 -4 -14 9 -96 -150 -88 -171 3 -8 2 -12 -3 -8 -5 3
-14 -10 -21 -29 -7 -21 -19 -36 -33 -40 -36 -9 -112 -7 -146 5 -21 8 -35 8
-44 1 -8 -7 -41 -4 -107 9 -145 30 -138 24 -93 73 58 60 84 101 77 123 -5 14
-4 15 4 4 8 -11 14 -1 27 44 27 93 22 257 -7 239 -7 -5 -8 -2 -3 5 4 7 -2 22
-16 37 -20 21 -36 26 -114 38 -11 2 -41 0 -66 -4z m54 -57 c-7 -2 -21 -2 -30
0 -10 3 -4 5 12 5 17 0 24 -2 18 -5z m38 -18 c25 -6 31 -14 43 -58 39 -141 33
-197 -30 -263 -30 -32 -44 -42 -44 -30 0 14 -6 16 -37 9 -66 -14 -130 -7 -179
18 -64 33 -88 67 -80 113 9 46 74 127 136 169 27 19 48 36 46 38 -7 7 115 10
145 4z m-231 -499 c0 -11 -19 -15 -25 -6 -3 5 1 10 9 10 9 0 16 -2 16 -4z
m-127 -30 c21 -16 22 -26 1 -26 -8 0 -13 -3 -11 -7 3 -5 -10 -9 -29 -10 -18
-1 -44 -9 -56 -17 -31 -22 -43 -20 -43 8 0 13 3 22 8 19 4 -2 10 3 13 12 13
32 85 45 117 21z m314 -10 c11 -1 19 -4 17 -8 -8 -13 113 -50 183 -55 70 -6
73 -7 97 -43 23 -35 24 -39 8 -52 -26 -22 -46 -33 -38 -20 8 13 -59 36 -75 26
-7 -4 -9 -3 -6 3 7 12 -174 86 -214 87 -15 1 -25 4 -23 7 2 3 -13 14 -34 23
-35 17 -36 18 -17 33 14 9 30 12 50 7 17 -4 40 -7 52 -8z m90 -388 c-3 -8 -6
-5 -6 6 -1 11 2 17 5 13 3 -3 4 -12 1 -19z m590 -84 c-3 -3 -12 -4 -19 -1 -8
3 -5 6 6 6 11 1 17 -2 13 -5z"/>
<path d="M1153 1259 c-24 -12 -40 -25 -37 -30 3 -5 10 -6 16 -3 6 4 8 2 4 -4
-3 -6 10 -20 30 -33 36 -22 37 -22 89 -4 l52 17 -25 39 c-30 46 -63 51 -129
18z"/>
</g>
</svg>
